<svg xmlns="http://www.w3.org/2000/svg" xmlns:xlink="http://www.w3.org/1999/xlink"><symbol id="cart" viewBox="0 0 21 18"><g fill="currentColor">
<path d="M20.1884 6.85716H16.6377L13.1884 0.380944C12.9855 -8.61287e-06 12.5797 -0.0952351 12.1739 0.0952412C11.7681 0.285717 11.6667 0.66667 11.8696 1.04762L15.0145 6.85716H5.7826L8.92753 1.04762C9.13043 0.66667 8.92754 0.285717 8.6232 0.0952412C8.2174 -0.0952351 7.8116 0.0952295 7.6087 0.380944L4.1594 6.85716H0.811583C0.405785 6.85716 0 7.14286 0 7.61905C0 8 0.304336 8.38094 0.811583 8.38094H1.01449L1.92753 11.2381C1.72463 11.3333 1.62317 11.5238 1.62317 11.8095C1.62317 12.1905 1.92753 12.4762 2.33332 12.4762L4.05797 18H16.942L18.6667 12.4762C19.0725 12.4762 19.3768 12.1905 19.3768 11.8095C19.3768 11.619 19.2754 11.3333 19.0725 11.2381L19.9855 8.38094H20.1884C20.5942 8.38094 21 8.09524 21 7.61905C21 7.14286 20.5942 6.85716 20.1884 6.85716ZM15.6232 16.4762H5.07247L3.85506 12.381H16.942L15.6232 16.4762ZM17.2464 10.9524H3.34782L2.53623 8.28573H18.058L17.2464 10.9524Z"/>
</g></symbol><symbol id="fb" viewBox="0 0 15 28"><g fill="currentColor">
<path d="M11.7035 5.25484C12.7024 5.25484 13.7014 5.25484 14.4006 4.95313C14.8002 4.14856 15 3.04228 15 1.936C14.8002 1.936 14.9001 1.63428 14.8002 1.53371C14.8002 1.33257 14.5005 1.33257 14.5005 1.13142C14.2009 0.930282 14.0011 0.729141 13.8013 0.527999C13.102 0.326857 12.4028 0.226286 11.6036 0.0251435C10.8045 0.0251435 9.70565 -0.0754291 9.00639 0.125713C6.40916 0.125713 5.01066 1.232 3.71204 2.53942C3.71204 2.63999 3.71204 2.74056 3.61215 2.74056C3.01278 4.3497 3.51225 6.36112 3.41236 8.37254C3.51225 8.77483 3.51225 9.37826 3.61215 9.78054C2.61321 10.0823 1.41449 10.1828 0.21577 10.2834C-0.08391 10.5851 0.0159827 11.3897 0.0159827 11.9931C0.115876 12.5965 0.315665 13.0994 0.415558 13.6022C0.615345 13.8034 1.01492 14.0045 1.2147 14.1051C1.3146 14.1051 1.3146 14.2057 1.3146 14.2057C1.81406 14.5074 2.813 14.2057 3.61215 14.3062C3.51225 16.3177 3.91183 18.2285 3.61215 20.0388C3.61215 20.3405 3.91183 20.4411 3.81193 20.8434C3.81193 21.8491 3.71204 22.8548 4.01172 23.5588C3.71204 24.0616 3.51225 24.5645 3.61215 25.3691C3.71204 25.3691 3.71204 25.5702 3.71204 25.6708C3.61215 26.1736 4.3114 25.8719 4.21151 26.3748C4.4113 26.8776 3.81193 26.5759 3.81193 26.8776V27.7828C4.3114 28.0845 5.31033 27.9839 6.10948 27.9839C7.00852 27.5816 8.30714 27.4811 8.9065 26.7771C9.40597 26.9782 9.80554 26.7771 10.1052 26.5759C10.1052 26.2742 10.4049 26.2742 10.305 25.8719C10.305 25.5702 10.1052 25.3691 10.2051 24.9668V22.0502C10.0053 19.7371 10.2051 17.1222 9.90544 14.8091C10.8045 14.7085 11.8034 14.7085 12.5027 14.4068C12.9022 13.904 12.9022 13.2 13.0021 12.496C13.2019 12.2948 13.2019 11.8925 13.2019 11.4902C13.4017 11.2891 13.3018 10.7863 13.3018 10.384C13.2019 9.78054 13.102 9.07654 12.5027 8.97597C11.6036 8.77483 10.5048 9.5794 9.50586 9.27769C9.50586 8.1714 9.20618 6.96455 9.50586 5.85827C10.305 5.65712 11.0043 5.45598 11.7035 5.25484ZM7.90757 10.0823C8.00746 10.384 8.20725 10.5851 8.30714 10.7863C8.40704 10.7863 8.50693 10.7863 8.50693 10.8868C9.70565 10.9874 10.7046 10.7863 11.6036 10.5851C11.6036 11.5908 11.3039 12.2948 11.1042 13.0994C10.4049 13.0994 9.60575 13.4011 9.10629 13.3005C8.80661 13.5017 8.70671 13.8034 8.50693 14.0045C8.50693 14.4068 8.60682 14.5074 8.50693 14.8091C8.30714 14.9097 8.40704 15.4125 8.30714 15.6137V17.1222C8.40704 17.4239 8.20724 17.4239 8.20724 17.6251V21.1451C8.10735 21.4468 8.30714 21.4468 8.30714 21.6479V24.6651C8.40704 24.9668 8.20725 25.4696 8.40703 25.5702C8.30714 25.9725 8.00746 25.5702 7.60788 25.6708C7.10842 25.7713 6.70884 26.0731 6.10948 26.0731C6.20938 25.6708 6.40916 25.4696 6.40916 24.9668C6.40916 24.5645 6.00959 24.6651 5.9097 24.4639C6.10948 23.8605 6.50906 23.3576 6.60895 22.6536C6.80874 22.1508 7.30821 21.3462 6.90863 20.8434C6.40916 20.7428 6.40916 21.1451 6.10948 21.2456C6.10948 21.3462 6.10948 21.4468 6.00959 21.4468C6.00959 21.5474 6.00959 21.6479 5.9097 21.6479C5.70991 21.7485 5.9097 21.7485 5.9097 21.6479C5.9097 21.5474 5.9097 21.4468 6.00959 21.4468C6.00959 21.3462 6.00959 21.2456 6.10948 21.2456V20.9439C6.50906 20.3405 6.80874 19.7371 6.90863 18.9325C7.10842 18.6308 7.20831 18.2285 7.3082 17.9268C7.50799 17.6251 7.60789 17.0217 7.4081 16.7199C6.90863 16.7199 6.60895 17.0217 6.50906 17.4239C6.20938 17.2228 6.70884 17.0217 6.60895 16.7199C6.70884 16.5188 6.80874 16.1165 6.90863 15.9154C7.10842 15.5131 7.50799 14.6079 6.90863 14.3062C6.50906 14.3062 6.30927 14.5074 6.20938 14.8091C6.00959 15.0102 5.8098 15.2114 5.70991 15.5131C5.31034 15.4125 5.61002 14.8091 5.51012 14.4068C5.41023 13.904 5.61002 13.5017 5.51012 13.2C4.91076 12.3954 3.51225 13.0994 2.31353 12.8982C2.21364 12.5965 2.11375 11.8925 2.21364 11.6914C3.21257 11.5908 4.71098 11.8925 5.41023 11.4902C5.41023 11.3897 5.41023 11.2891 5.51012 11.2891C5.61002 10.5851 5.21044 10.2834 5.01066 9.88111C5.21044 9.07654 5.01065 7.86969 5.11055 6.86398C5.31033 6.76341 5.41023 6.46169 5.61001 6.26055C5.70991 5.25484 6.30927 4.75199 6.30927 3.74627C6.00959 3.74627 5.70991 3.6457 5.70991 3.94742C5.41023 3.84685 5.31034 4.45027 5.21044 4.14856C5.11055 3.6457 5.41023 3.54513 5.51012 3.14285C6.10948 2.74056 6.70885 2.33828 7.4081 1.936C9.10629 1.73485 12.0032 1.53371 13.5016 2.13714C13.6015 2.74056 13.2019 3.04227 13.3018 3.6457H11.8034C10.7046 3.84684 9.80554 4.3497 8.80661 4.65141C8.60682 4.75198 8.50693 4.95313 8.30714 5.0537C8.30714 5.45598 8.10735 5.65712 8.00746 6.05941C7.70778 7.4674 7.90757 8.67426 7.90757 10.0823Z"/>
</g></symbol><symbol id="flag" viewBox="0 0 47 82"><g fill="none">
<path d="M7.76611 4.76697V43.3337L47 24.0007L7.76611 4.76697ZM0 81.9004V0.900391H3.83261V81.9004H0Z" fill="#63D1BB"/>
<path d="M3.83262 1H0V82H3.83262V1Z" fill="#231F20"/>
</g></symbol><symbol id="htmlacademy" viewBox="0 0 27 34"><g fill="currentColor">
<path d="M13.6506 0H13.5502L0 1.39589V26.0235L13.5502 34L27 26.0235V1.39589L13.6506 0ZM25.0929 12.0645L13.5502 5.28446V5.18475H13.4498L13.3494 5.08504V5.18475L1.90706 12.0645V3.09091L13.4498 1.89443L25.0929 3.09091V12.0645ZM13.4498 6.78006L24.9926 13.4604L20.4758 16.0528L13.3494 11.8651V13.261L19.2714 16.7507L18.368 17.2493L13.3494 14.2581V15.654L17.1636 17.9472L16.3606 18.4457L13.3494 16.651V18.0469L15.2565 19.1437L13.4498 20.2405L2.00744 13.5601L13.4498 6.78006ZM1.90706 15.0557L13.3494 21.8358V22.8328L5.42007 18.1466V19.5425L13.4498 24.3284V25.4252L5.42007 20.739V22.1349L13.4498 26.9208L21.5799 22.0352V16.8504L24.9926 14.8563V24.827L13.4498 31.7067L1.90706 24.9267V15.0557Z"/>
</g></symbol><symbol id="huge-arrow-left" viewBox="0 0 50 26"><g fill="none">
<path d="M50 11H7.7L15.8 2.8L13 0L0 13L13 26L15.8 23.2L7.7 15H50V11Z" fill="black"/>
</g></symbol><symbol id="icon-1" viewBox="0 0 33 38"><g fill="none">
<path d="M16.5 38C25.575 38 33 30.6452 33 21.6559C23.925 21.6559 16.5 28.9086 16.5 38ZM4.74375 16.6505C4.74375 19.2043 6.80625 21.1452 9.28125 21.1452C10.2094 21.1452 11.1375 20.8387 11.8594 20.328V20.6344C11.8594 23.1882 13.9219 25.129 16.3969 25.129C18.975 25.129 20.9344 23.086 20.9344 20.6344V20.328C21.6562 20.8387 22.5844 21.1452 23.5125 21.1452C26.0906 21.1452 28.05 19.1021 28.05 16.6505C28.05 14.8118 27.0188 13.2796 25.4719 12.5645C27.0188 11.8495 28.05 10.3172 28.05 8.47849C28.05 5.92473 25.9875 3.98387 23.5125 3.98387C22.5844 3.98387 21.6562 4.29032 20.9344 4.80107V4.49462C20.9344 1.94086 18.8719 0 16.3969 0C13.8187 0 11.8594 2.04301 11.8594 4.49462V4.80107C11.1375 4.29032 10.2094 3.98387 9.28125 3.98387C6.70312 3.98387 4.74375 6.02688 4.74375 8.47849C4.74375 10.3172 5.775 11.8495 7.32188 12.5645C5.87813 13.2796 4.74375 14.8118 4.74375 16.6505ZM16.5 7.96774C19.0781 7.96774 21.0375 10.0108 21.0375 12.4624C21.0375 15.0161 18.975 16.957 16.5 16.957C13.9219 16.957 11.9625 14.914 11.9625 12.4624C11.9625 10.0108 13.9219 7.96774 16.5 7.96774ZM0 21.6559C0 30.6452 7.425 38 16.5 38C16.5 28.9086 9.075 21.6559 0 21.6559Z" fill="#63D1BB"/>
</g></symbol><symbol id="icon-2" viewBox="0 0 35 34"><g fill="none">
<path d="M0.305558 13.9528C-0.101853 16.0303 -0.101853 18.1079 0.305558 20.1854L4.48152 17.0196L0.305558 13.9528Z" fill="#63D1BB"/>
<path d="M24.852 1.586C19.9631 -0.590493 14.2593 -0.590493 9.26855 1.98172L16.9075 7.52187L24.852 1.586Z" fill="#63D1BB"/>
<path d="M34.528 13.062L29.6391 16.7225L34.6299 20.3829C35.1391 18.0086 35.1391 15.4364 34.528 13.062Z" fill="#63D1BB"/>
<path d="M9.37048 32.057C14.2594 34.5303 20.2687 34.7281 25.3614 32.1559L17.1113 26.1211L9.37048 32.057Z" fill="#63D1BB"/>
<path d="M8.04638 14.2488L1.73151 9.698C1.42595 10.3905 1.12039 11.083 0.916687 11.7756L6.31488 15.7328L8.04638 14.2488Z" fill="#63D1BB"/>
<path d="M18.9446 24.8349L27.3984 30.9686C27.7039 30.7707 28.0095 30.5729 28.2132 30.375C28.5187 30.1772 28.8243 29.8804 29.1298 29.5836L20.6761 23.4498L18.9446 24.8349Z" fill="#63D1BB"/>
<path d="M11.6112 11.5781L4.07415 6.13684C3.56488 6.6315 3.15747 7.22509 2.75006 7.81867L9.7779 12.9631L11.6112 11.5781Z" fill="#63D1BB"/>
<path d="M22.5094 22.1635L30.7595 28.1983C31.2687 27.7036 31.6761 27.11 32.0836 26.5165L24.2409 20.7784L22.5094 22.1635Z" fill="#63D1BB"/>
<path d="M15.176 8.90696L7.33336 3.16895C7.12966 3.26788 6.92595 3.46574 6.72225 3.56467C6.31484 3.86146 5.90743 4.15826 5.60187 4.55398L13.4445 10.1931L15.176 8.90696Z" fill="#63D1BB"/>
<path d="M26.0743 19.3936L33.204 24.538C33.5095 23.8455 33.8151 23.2519 34.1206 22.5594L27.9076 18.0085L26.0743 19.3936Z" fill="#63D1BB"/>
<path d="M26.8891 2.67419L0.916687 22.3615C1.12039 23.054 1.42595 23.7466 1.73151 24.4391L28.7225 3.9603C28.2132 3.46564 27.6021 3.06992 26.8891 2.67419Z" fill="#63D1BB"/>
<path d="M31.2688 6.53234C30.9632 6.13661 30.6577 5.74089 30.3521 5.44409L2.85187 26.2197C3.05557 26.7143 3.36113 27.11 3.66669 27.4068C3.76854 27.6047 3.97225 27.8026 4.0741 27.9015L31.778 7.12592C31.5743 6.92806 31.4725 6.7302 31.2688 6.53234Z" fill="#63D1BB"/>
<path d="M32.8984 8.90674L5.70374 29.4844C6.213 29.9791 6.82412 30.4738 7.43523 30.8695L33.9169 10.8854C33.6114 10.1928 33.3058 9.50033 32.8984 8.90674Z" fill="#63D1BB"/>
</g></symbol><symbol id="icon-3" viewBox="0 0 47 27"><g fill="none">
<path d="M43.0665 0H3.93347C1.71459 0 0 1.68132 0 3.85714V23.1429C0 25.3187 1.71459 27 3.93347 27H43.0665C45.2854 27 47 25.3187 47 23.1429V3.85714C47 1.78022 45.1845 0 43.0665 0ZM3.02575 24.7253V2.76923H43.5708V24.7253H3.02575Z" fill="#63D1BB"/>
<path d="M6.95926 20.8683H39.6374V6.62659H6.95926V20.8683ZM23.5 8.50571C26.4249 8.50571 28.8455 10.8793 28.8455 13.7475C28.8455 16.6156 26.4249 18.9892 23.5 18.9892C20.5751 18.9892 18.1545 16.6156 18.1545 13.7475C18.1545 10.7804 20.5751 8.50571 23.5 8.50571Z" fill="#63D1BB"/>
</g></symbol><symbol id="icon-4" viewBox="0 0 55 23"><g fill="none">
<path d="M40.9467 5.75002C37.307 4.75864 33.0607 4.06466 28.41 4.06466C25.478 4.06466 22.8493 4.26294 20.625 4.65949L13.75 0H0.10114L5.9651 6.14656H14.4577C9.80697 7.73277 7.58272 9.61639 7.58272 9.61639V13.3836C7.58272 13.3836 9.90811 15.2672 14.5588 16.8534H5.86396L0 23H13.6489L20.5239 18.3405C22.8492 18.7371 25.3768 18.9354 28.3088 18.9354C32.8584 18.9354 37.1048 18.2414 40.8456 17.25C39.6324 15.4655 38.9246 13.5819 38.9246 11.4009C39.0257 9.4181 39.8345 7.5345 40.9467 5.75002Z" fill="#63D1BB"/>
<path d="M44.4853 6.74121C43.1709 8.32742 42.4632 9.91361 42.4632 11.4998C42.4632 13.086 43.1709 14.6722 44.4853 16.2585C50.9558 14.0774 55 11.4998 55 11.4998C55 11.4998 50.9558 8.92224 44.4853 6.74121Z" fill="#63D1BB"/>
</g></symbol><symbol id="icon-5" viewBox="0 0 34 27"><g fill="none">
<path d="M34 8.44964C34 3.78777 29.9818 0 25.0364 0C21.5333 0 18.5455 1.94245 17 4.66187C15.5576 1.94245 12.4667 0 8.96364 0C4.01818 0 0 3.78777 0 8.44964C0 17.2878 15.1455 27 17 27C18.9576 27 34 17.3849 34 8.44964Z" fill="#63D1BB"/>
</g></symbol><symbol id="icon-6" viewBox="0 0 33 32"><g fill="none">
<path d="M3.02752 32H15.6422V18.2716H3.02752V32ZM31.3853 8.69136H24.0183C24.5229 8.39506 25.0275 8.19753 25.4312 7.90123C27.0459 6.81481 27.8532 5.33333 27.8532 3.95062C27.8532 2.76543 27.2477 1.77777 26.4404 1.08641C25.633 0.395053 24.5229 0 23.4128 0C22.2018 0 20.9908 0.395053 20.0826 1.08641C18.5688 2.07406 17.4587 3.55555 16.6514 5.1358C16.6514 5.23456 16.5505 5.33333 16.5505 5.33333C16.2477 4.74073 15.945 4.14814 15.5413 3.55555C14.8349 2.56789 14.0275 1.679 13.0183 1.08641C12.0092 0.493818 10.8991 0 9.68807 0C8.47706 0 7.36697 0.49383 6.45871 1.28395C5.65137 2.07408 5.04587 3.16049 5.04587 4.34567C5.04587 5.03703 5.2477 5.82715 5.65137 6.51851C6.25687 7.4074 7.06422 8.09877 8.27523 8.69136H1.61467C0.706413 8.69136 0 9.38271 0 10.2716V16.0988H15.5413V8.69136H17.4587V16.0988H33V10.2716C33 9.38271 32.2936 8.69136 31.3853 8.69136ZM8.88073 6.41975C8.27522 6.02469 7.87155 5.62962 7.66972 5.33333C7.46788 4.93826 7.36696 4.64197 7.36696 4.34567C7.36696 3.85184 7.56881 3.35802 8.0734 2.86419C8.47707 2.46913 9.08256 2.17284 9.68807 2.17284C10.3945 2.17284 11.1009 2.37036 11.7064 2.86419C12.7156 3.55555 13.7248 4.64196 14.3303 6.02468C14.633 6.71604 14.9358 7.4074 15.1376 8.09876C12.0092 7.80246 9.99082 7.11111 8.88073 6.41975ZM19.4771 4.8395C20.0826 4.04938 20.6881 3.35802 21.3945 2.96296C22.1009 2.46914 22.8073 2.27161 23.4128 2.27161C24.0183 2.27161 24.5229 2.46914 24.9266 2.76543C25.3303 3.06173 25.5321 3.45679 25.5321 3.95062C25.5321 4.44444 25.2294 5.23456 24.0183 6.02468C22.9083 6.8148 20.8899 7.7037 17.8624 8.29629C18.1651 7.1111 18.7706 5.82715 19.4771 4.8395ZM17.4587 32H30.0734V18.2716H17.4587V32Z" fill="#63D1BB"/>
</g></symbol><symbol id="icon-tick" viewBox="0 0 33 22"><g fill="none">
<path d="M32.3704 1.35683L31.0098 0L11.5739 19.2863L1.95311 9.69163L0.59259 11.0485L10.2134 20.6432L11.5739 22L13.0316 20.6432L32.3704 1.35683Z" fill="black"/>
</g></symbol><symbol id="insta" viewBox="0 0 22 21"><g fill="currentColor">
	<path id="insta.svg" d="M22 11.58C22 9.2 21.69 6.83 21.69 4.55C21.69 3.75 21.59 3.06 21.49 2.27C21.39 1.97 21.39 1.58 21.29 1.18C20.99 0.98 21.09 0.58 20.79 0.39C20.38 0.19 19.58 0.29 19.08 0.19C18.37 0.19 17.77 0.09 17.16 -0.01C15.25 -0.11 13.14 -0.11 11.12 -0.11C9.11 -0.11 7.1 -0.21 5.39 -0.5L3.17 -0.5C3.07 -0.5 3.07 -0.41 2.97 -0.41C2.37 -0.41 1.86 -0.21 1.36 -0.11C1.16 -0.01 0.96 0.09 0.66 0.19C0.56 0.39 0.15 0.29 0.05 0.58C-0.15 0.78 0.25 1.08 0.05 1.18L0.05 2.07C0.25 2.17 0.05 2.66 0.15 2.86L0.15 3.85C0.15 5.14 0.25 6.23 0.25 7.52C0.76 10.29 0.66 13.96 0.36 16.83C0.56 17.42 0.76 17.92 0.86 18.51C1.16 19.01 1.16 19.6 1.56 20C2.07 20.2 2.77 20.2 3.48 20.2C3.88 20.3 4.18 20.5 4.58 20.5C7.4 20.3 10.12 20.3 13.04 20.3C15.75 20.5 18.87 20.5 21.39 20.1C21.59 20 21.49 19.6 21.59 19.31C21.49 18.91 21.79 18.91 21.79 18.51C22 16.43 22 14.06 22 11.58ZM8.91 5.44C9.72 5.24 10.42 5.14 11.33 5.14C12.03 5.24 12.63 5.44 13.24 5.64C13.34 5.83 13.04 6.13 13.44 6.33C13.54 6.33 13.54 6.33 13.64 6.43C14.04 6.43 14.45 6.63 14.75 6.83C15.25 6.92 15.25 7.32 15.86 7.22C15.75 7.42 15.75 7.72 15.75 8.01C16.06 9.2 16.26 10.79 16.06 12.27C15.86 12.47 15.86 12.67 15.75 12.97C15.45 13.26 15.25 13.76 14.95 14.06C14.85 14.25 14.65 14.45 14.45 14.55C14.35 14.75 14.24 15.05 13.94 15.05C13.64 15.25 13.34 15.05 13.14 14.95C12.74 15.15 12.23 15.25 11.93 15.54C11.12 15.44 10.32 15.34 9.51 15.25C9.31 15.15 9.01 14.95 8.71 14.95C8.51 14.75 8.21 14.55 7.9 14.45C7.8 14.35 7.6 14.35 7.4 14.25C7.2 14.25 7.2 14.06 6.9 14.06C6.8 13.66 6.49 13.46 6.39 12.97C6.19 12.67 6.09 12.17 5.89 11.78C5.89 10.39 5.99 9.1 6.29 8.01C6.6 7.42 7.1 6.92 7.4 6.33C7.6 6.33 7.8 6.23 7.8 6.03C8.11 6.13 8.21 5.93 8.51 5.93C8.71 5.93 8.71 5.64 8.91 5.44ZM7.2 2.76C7.1 2.47 7.1 2.07 7.1 1.67C7.1 1.38 7.4 1.38 7.4 1.18C7.4 1.08 7.3 1.08 7.2 1.08C7.3 0.98 7.9 0.98 8 1.08C8.11 1.58 7.6 1.58 7.5 1.77C7.5 1.97 7.8 1.77 8 1.87C8 2.76 7.9 3.36 8 4.05L7.5 4.05C7.5 4.25 7.7 4.25 8 4.25C7.9 4.55 8.11 4.65 8.11 4.84C7.9 5.04 7.4 4.84 7 4.94C7 4.35 7.3 3.56 7.2 2.76ZM6.49 1.18C6.6 1.18 6.6 1.18 6.7 1.28C6.9 1.58 6.7 1.97 6.6 2.17C6.39 1.97 6.6 1.48 6.49 1.18ZM6.7 2.96C6.6 2.86 6.49 2.76 6.49 2.47C6.7 2.57 6.7 2.76 6.7 2.96ZM6.7 4.35C6.6 4.45 6.6 4.35 6.6 4.15C6.7 4.05 6.7 4.25 6.7 4.35ZM6.49 4.55C6.7 4.55 6.6 4.75 6.7 4.75C6.7 4.94 6.39 4.94 6.29 4.84C6.39 4.75 6.49 4.65 6.49 4.55ZM4.18 3.36C4.18 3.26 4.18 3.16 4.08 3.16C3.98 2.47 4.18 1.77 4.08 1.18C4.38 0.98 4.88 1.18 5.19 1.08L5.19 2.17C5.09 2.27 4.99 2.27 4.78 2.27C4.68 2.57 5.09 2.37 5.19 2.57C5.19 3.46 5.09 4.35 5.39 4.94C4.78 4.84 4.48 5.04 3.98 5.04C4.08 4.45 3.98 3.66 4.48 3.46C4.48 3.36 4.18 3.46 4.18 3.36ZM3.68 3.36C3.48 3.36 3.48 2.86 3.58 2.76C3.88 2.76 3.78 3.26 3.68 3.36ZM3.48 4.35C3.58 4.05 3.48 4.05 3.58 3.66C3.78 3.66 3.78 4.45 3.48 4.35ZM3.68 2.27C3.37 2.37 3.37 1.97 3.48 1.87C3.78 1.87 3.88 2.17 3.68 2.27ZM3.68 1.18C3.68 1.38 3.58 1.38 3.58 1.48C3.37 1.48 3.48 1.28 3.37 1.28C3.48 1.18 3.58 1.18 3.68 1.18ZM3.48 4.84C3.58 4.84 3.58 5.14 3.37 5.04C3.48 5.04 3.48 4.94 3.48 4.84ZM2.77 1.18C2.77 1.48 2.37 1.48 2.37 1.18L2.77 1.18ZM1.76 1.28C1.76 1.48 1.46 1.48 1.36 1.67C1.16 1.48 1.46 1.18 1.76 1.28ZM1.36 1.97C1.56 1.77 1.86 1.58 2.07 1.38C2.07 1.28 2.17 1.28 2.17 1.18L2.37 1.18C2.47 1.58 2.07 1.48 2.07 1.67C2.07 1.77 1.97 1.77 1.97 1.87C1.97 2.17 2.07 2.47 2.07 2.86C1.76 2.86 1.76 3.16 1.46 3.06C1.46 2.66 1.26 2.47 1.36 1.97ZM1.46 5.24L1.46 3.66C1.66 3.46 1.86 3.26 2.07 3.16C2.37 3.66 2.27 4.55 2.57 5.04C2.17 5.14 1.76 5.14 1.46 5.24ZM19.78 16.24C19.68 17.23 19.58 18.22 19.38 19.01C16.46 19.11 13.34 19.01 10.42 19.21C10.22 19.21 10.12 19.21 10.22 19.01C9.92 19.01 9.92 19.21 9.72 19.21C9.92 18.91 10.12 18.32 9.92 17.92C9.11 17.92 9.11 18.71 8.81 19.21C8.11 19.11 7.7 19.31 7 19.31C7.2 18.61 7.7 18.32 7.9 17.62C7.5 17.13 6.9 17.72 6.7 18.12C6.49 18.61 6.09 18.91 5.89 19.41L4.88 19.41C5.09 18.91 5.39 18.51 5.69 18.02C5.89 17.52 6.29 17.33 6.39 16.63C6.19 16.33 5.99 16.63 5.69 16.63C5.59 16.83 5.39 16.93 5.29 17.13C5.09 17.52 4.78 17.82 4.58 18.22C4.38 18.41 4.28 18.22 4.08 18.41C3.68 18.71 3.48 19.11 3.07 19.41C2.87 19.31 3.07 19.01 3.27 19.01C3.27 18.81 3.17 18.51 3.37 18.41C3.48 18.02 3.58 17.82 3.78 17.52C3.88 16.83 4.28 16.33 4.48 15.64C3.88 15.74 3.78 16.24 3.48 16.63C3.27 17.03 2.97 17.42 2.77 17.92C2.57 17.82 2.77 17.33 2.67 17.13C2.77 16.53 2.97 16.04 3.07 15.44C3.17 15.25 3.27 14.95 3.27 14.65C3.48 14.45 3.27 14.06 3.17 13.86C2.97 13.86 2.77 13.96 2.67 14.16C2.47 14.16 2.47 14.65 2.37 14.45C2.37 11.88 1.86 9.7 1.86 7.12C1.86 6.83 1.66 6.73 1.66 6.43C3.27 6.43 4.78 6.53 6.49 6.63C6.39 6.73 6.29 6.92 6.19 7.02C6.09 7.12 5.99 7.22 5.79 7.32C5.19 9 4.78 11.28 5.19 13.46C5.39 14.06 5.79 14.45 6.19 14.85C7.1 15.34 7.8 15.94 8.71 16.53C10.42 16.93 12.53 16.93 14.24 16.53C14.45 16.43 14.75 16.33 14.95 16.14C16.36 14.95 17.77 13.66 17.97 11.28L17.97 9.9C17.77 8.31 17.26 7.02 16.26 6.33C16.56 6.13 17.37 6.33 17.97 6.43C18.17 6.43 18.37 6.43 18.67 6.43C19.08 6.43 19.58 6.33 20.08 6.43C20.18 6.63 20.18 6.92 20.28 7.22C20.18 8.91 20.08 10.49 20.08 12.27C20.18 12.77 20.18 13.26 20.28 13.66C20.08 14.45 19.98 15.34 19.78 16.24ZM20.18 5.14C19.58 5.04 18.98 4.84 18.27 4.75C18.37 4.45 19.08 4.75 19.28 4.55C19.68 4.35 19.58 3.66 19.58 3.06C19.58 2.76 19.68 2.47 19.68 1.97C19.28 0.98 17.87 1.58 16.76 1.48C16.56 2.17 16.26 3.26 16.46 4.15C16.66 4.65 17.47 4.45 17.97 4.65C17.87 4.94 17.26 4.75 16.96 4.75C16.66 4.65 16.26 4.65 15.96 4.55C13.64 4.65 11.63 4.55 9.41 4.75C9.51 3.56 9.51 2.27 9.31 1.18L12.43 1.18C12.13 1.58 11.53 1.67 11.12 1.97C10.72 2.17 10.22 2.47 10.02 2.86C10.22 2.96 10.52 2.66 10.82 2.47C11.23 2.37 11.33 2.07 11.63 1.97C12.03 1.58 12.74 1.38 13.34 1.08C13.74 1.08 14.04 1.08 14.35 1.18C15.65 1.18 16.86 1.28 18.17 1.28C18.77 1.38 19.68 1.38 20.18 1.58C20.28 1.87 20.38 2.17 20.49 2.47C20.38 3.46 20.18 4.25 20.18 5.14ZM14.24 1.48C13.74 1.67 13.24 1.77 12.84 2.17C13.34 1.97 13.94 1.87 14.24 1.48ZM13.54 2.96C14.24 2.76 14.75 2.37 15.25 2.07C14.85 2.07 14.65 2.37 14.24 2.47C14.14 2.66 13.74 2.66 13.54 2.96ZM11.23 3.46C11.53 3.36 11.83 3.16 12.03 2.86C11.73 3.06 11.43 3.26 11.23 3.46ZM13.54 4.45C14.04 4.45 14.24 4.05 14.75 3.95C15.05 3.66 15.55 3.56 15.75 3.16C15.15 3.16 14.95 3.56 14.55 3.66C14.24 4.05 13.74 4.15 13.54 4.45ZM12.33 6.23C12.13 6.03 11.63 6.03 11.33 5.83C10.62 5.83 10.12 5.93 9.61 6.03C9.31 6.23 9.01 6.33 8.71 6.53C8.41 6.73 8.31 6.92 7.9 7.02C7.7 7.22 7.5 7.52 7.2 7.62C7.2 7.82 7 7.91 6.9 8.01C6.8 8.11 6.8 8.31 6.7 8.41C6.7 8.51 6.7 8.71 6.6 8.71C6.7 10.19 6.9 11.58 7.3 12.87C7.6 13.46 8.31 13.66 8.71 14.16C9.31 14.45 10.02 14.55 10.82 14.65C11.12 14.55 11.43 14.55 11.73 14.55C12.94 14.35 13.84 13.86 14.55 13.16C14.65 12.87 14.85 12.67 15.05 12.47C14.75 11.78 15.35 11.38 15.55 10.89C15.55 9.6 15.35 8.41 14.95 7.52C14.65 6.92 14.04 6.73 13.54 6.43C13.44 6.43 13.34 6.43 13.34 6.33C13.14 6.23 12.63 6.13 12.33 6.23ZM8.91 10.59C8.81 10.49 8.81 10.39 8.71 10.19C9.01 10.09 8.91 10.39 8.91 10.59ZM11.12 6.73C10.92 7.02 11.12 7.32 11.23 7.52C10.92 7.52 10.62 6.73 11.12 6.73ZM12.23 13.46C12.23 13.36 12.33 13.46 12.43 13.46C12.43 13.56 12.23 13.56 12.23 13.46ZM14.45 10.99C14.24 10.89 14.35 11.18 14.04 11.18C14.14 10.99 14.14 10.89 14.24 10.69C14.45 10.69 14.55 10.79 14.45 10.99ZM13.34 7.22C13.54 7.32 13.74 7.42 13.94 7.62C14.04 7.82 14.14 8.01 14.35 8.11C14.45 8.91 14.55 9.6 14.55 10.49C14.24 10.59 14.14 10.79 13.84 10.89C13.04 10.89 12.43 10.69 11.93 10.39C11.73 10.09 11.53 9.9 11.43 9.6L11.43 8.51C11.63 8.31 11.73 8.11 11.93 7.91C12.13 7.82 12.43 7.72 12.43 7.32C12.43 7.22 12.33 7.22 12.33 7.12C12.53 7.12 12.53 7.32 12.74 7.32C12.94 7.32 13.04 7.12 13.34 7.22Z" fill-opacity="1.000000"/>
</g></symbol><symbol id="interior" viewBox="0 0 41 62"><g fill="none">
<g opacity="0.5">
<path d="M15.5024 37.7564C15.1965 38.75 15.2985 39.9423 15.5024 41.3333C16.0124 43.9166 17.2363 47.2949 17.9502 50.9711H23.1517C23.8656 47.3942 25.0895 44.016 25.7014 41.3333C26.0074 39.9423 26.0074 38.6506 25.7014 37.7564C25.3955 36.8622 24.7835 36.1666 23.6616 35.4711H17.5422C16.3184 36.1666 15.7064 36.8622 15.5024 37.7564Z" fill="#149080"/>
<path d="M27.5373 57.6282H13.4627C12.1368 57.6282 11.1169 58.6218 11.1169 59.8141V62H13.4627H27.5373H29.8831V59.8141C29.8831 58.6218 28.8632 57.6282 27.5373 57.6282Z" fill="#149080"/>
<path d="M34.7786 2.28587H22.8458C22.8458 1.09357 21.8259 0.0999756 20.5 0.0999756C19.1741 0.0999756 18.1542 1.09357 18.1542 2.28587H6.22138L0 27.6224C0.81592 27.1256 1.63185 26.6288 2.65175 26.6288C4.07961 26.6288 4.89552 27.4237 5.60945 28.0198C6.32338 28.616 6.83333 28.8147 7.03731 28.8147C7.34328 28.8147 7.85323 28.5166 8.56716 28.0198C9.28109 27.5231 10.199 26.6288 11.5249 26.6288C12.8507 26.6288 13.7687 27.4237 14.4826 28.0198C15.1965 28.5166 15.7065 28.8147 16.0124 28.8147C16.1144 28.8147 16.3184 28.7154 16.6244 28.616C16.8283 28.5166 17.1343 28.2186 17.5423 28.0198C18.0522 27.6224 18.6642 27.0263 19.5821 26.8275C19.8881 26.7282 20.194 26.7282 20.5 26.7282C21.8259 26.7282 22.7438 27.5231 23.4577 28.1192C24.1716 28.616 24.6816 28.9141 24.9876 28.9141C25.2935 28.9141 25.8035 28.616 26.4154 28.1192C27.1293 27.5231 28.0472 26.7282 29.3731 26.7282C30.801 26.7282 31.6169 27.5231 32.3308 28.1192C32.6368 28.4173 32.9428 28.616 33.2487 28.7154C33.4527 28.8147 33.6567 28.9141 33.8607 28.9141C34.1667 28.9141 34.6766 28.616 35.2885 28.0198C36.0025 27.4237 36.9204 26.6288 38.2463 26.6288C39.2662 26.6288 40.0821 27.1256 40.898 27.6224L34.7786 2.28587Z" fill="#149080"/>
<path d="M23.9677 53.157H16.9304C16.2164 53.157 15.8085 53.6538 15.8085 54.25C15.8085 54.8461 16.3184 55.3429 16.9304 55.3429H23.9677C24.6816 55.3429 25.0896 54.8461 25.0896 54.25C25.1915 53.6538 24.6816 53.157 23.9677 53.157Z" fill="#149080"/>
<path d="M20.5 28.8141C20.398 28.8141 20.194 28.9134 19.8881 29.0128C19.6841 29.1122 19.4801 29.3109 19.2761 29.4102V33.0865H21.6219V29.5096C21.1119 29.1122 20.704 28.8141 20.5 28.8141Z" fill="#149080"/>
</g>
</g></symbol><symbol id="logo-footer" viewBox="0 0 102 34"><g fill="currentColor">
<path d="M19.2204 21.3813C19.1204 18.6962 18.7204 16.1105 18.7204 13.4255C18.7204 11.2376 19.1204 9.04976 18.3204 6.96135C18.3204 6.76246 18.4204 6.46411 18.4204 6.26522C18.6204 5.27074 15.1204 5.76798 14.6204 6.76246C14.3204 7.0608 14.1204 7.35914 14.2204 7.75694C14.2204 7.85638 14.3204 7.95583 14.3204 8.05528C13.6204 11.2376 12.7204 14.3205 11.7204 17.4034C11.3204 18.5967 10.8204 19.6907 10.4204 20.884C9.82041 19.7901 9.22041 18.6962 8.82041 17.5028C7.42041 14.1216 6.22041 10.6409 4.52041 7.35914C4.72041 5.86743 1.32041 5.96688 0.620408 7.35914C-0.179592 9.04976 -0.0795918 10.7404 0.220408 12.5304C0.520408 14.5194 0.620408 16.5083 0.620408 18.5967C0.620408 22.5746 1.02041 26.4531 1.02041 30.431C0.620408 30.8288 0.520408 31.326 0.920408 31.8233C1.12041 32.0222 1.32041 32.2211 1.52041 32.3205C2.52041 33.0167 5.12041 32.42 5.12041 31.0277C5.12041 26.9503 4.82041 22.873 4.72041 18.6962C4.72041 18.2984 4.72041 17.9006 4.72041 17.5028C4.82041 17.6023 4.82041 17.8012 4.92041 17.9006C5.52041 19.4918 6.22041 21.0829 7.12041 22.5746C8.02041 24.0664 8.42041 25.6575 8.92041 27.2487C8.72041 27.4476 8.62041 27.7459 8.72041 27.9448C8.72041 28.1437 8.82041 28.2432 9.02041 28.3426C9.62041 28.8399 10.8204 28.641 11.5204 28.3426C11.8204 28.2432 12.1204 28.0443 12.3204 27.9448C12.6204 27.7459 13.2204 27.2487 13.0204 26.7515C13.0204 26.652 12.9204 26.5526 12.9204 26.4531C13.4204 25.1603 13.6204 23.8675 13.9204 22.5746C14.2204 21.1824 14.7204 19.7901 15.2204 18.4973C15.3204 19.094 15.3204 19.6907 15.4204 20.3868C15.6204 22.9724 15.4204 25.4586 15.4204 27.9448C15.4204 28.7404 15.5204 29.536 15.6204 30.431C15.7204 30.7294 16.0204 32.2211 15.9204 32.3205C15.1204 32.8178 15.3204 33.4144 16.1204 33.6133C17.0204 33.8122 18.2204 33.5139 18.9204 32.9172C20.1204 31.8233 19.5204 30.1327 19.3204 28.7404C18.8204 26.3537 19.3204 23.768 19.2204 21.3813Z"/>
<path d="M27.6201 22.0776C27.5201 20.0887 26.8201 18.1992 26.8201 16.2102C26.8201 13.9229 27.0201 11.6356 26.6201 9.34833C26.5201 8.65219 22.5201 9.44778 22.7201 10.3428C23.0201 12.4312 22.9201 14.5196 22.9201 16.7075C22.9201 18.6964 23.4201 20.5859 23.6201 22.5749C23.9201 24.6633 23.5201 26.7517 23.7201 28.7406C23.8201 29.7351 24.5201 31.4257 23.8201 32.3208C23.4201 32.818 25.3201 32.6191 25.4201 32.6191C26.2201 32.5196 27.2201 32.2213 27.7201 31.6246C28.4201 30.829 27.9201 29.2379 27.8201 28.2434C27.5201 26.2544 27.7201 24.0666 27.6201 22.0776Z"/>
<path d="M43.9205 18.7956C41.8205 16.0111 38.0205 18.0001 35.3205 17.3039C33.9205 16.9061 33.9205 15.0166 33.9205 13.9227C33.9205 12.5304 33.8205 11.2376 33.6205 9.84534C33.5205 8.75142 33.6205 7.75694 34.3205 6.96136C34.4205 6.86191 35.2205 6.66302 35.1205 6.66302C35.5205 6.56357 35.8205 6.56357 36.2205 6.56357C37.7205 6.46412 40.8205 6.76247 40.2205 9.04976C39.9205 10.0442 43.8205 9.44755 44.1205 8.45308C45.3205 3.87848 36.8205 4.77351 34.4205 5.3702C32.2205 5.96688 29.8205 7.16026 29.6205 9.7459C29.5205 10.9393 29.9205 12.1326 29.9205 13.326C30.0205 14.7183 29.7205 16.1106 30.2205 17.4034C31.3205 20.3868 35.7205 18.9945 38.0205 19.094C41.8205 19.3923 40.7205 24.5636 40.7205 26.9504C40.7205 28.2432 41.9205 30.3316 40.9205 31.4255C40.3205 32.1216 38.9205 32.1216 38.1205 32.2211C37.3205 32.3205 35.9205 32.5194 35.4205 31.7238C34.4205 30.3316 35.5205 27.9448 35.3205 26.3537C35.2205 25.4586 31.2205 26.2542 31.4205 27.3481C31.7205 29.9338 30.0205 33.4145 33.8205 33.9117C36.2205 34.21 39.0205 33.7128 41.3205 33.0167C42.5205 32.6189 43.6205 32.1216 44.5205 31.2266C45.5205 30.3316 45.2205 28.9393 44.9205 27.7459C44.4205 24.6631 45.8205 21.2818 43.9205 18.7956Z"/>
<path d="M61.3201 18.5966C61.2201 14.8176 60.6201 11.1381 60.6201 7.35905C60.6201 5.37009 56.6201 6.06623 56.6201 7.65739C56.6201 11.2375 57.1201 14.8176 57.3201 18.3977C57.3201 18.4972 57.3201 18.4972 57.3201 18.5966C55.4201 18.5966 53.4201 18.7955 51.4201 18.7955C51.6201 14.2209 50.8201 9.64634 51.0201 4.9723C51.0201 4.37561 47.1201 4.87285 47.1201 5.96678C46.9201 10.4419 47.7201 14.8176 47.6201 19.2928C47.5201 21.3812 47.4201 23.569 47.3201 25.6574C47.3201 26.7514 47.5201 27.8453 47.6201 28.9392C47.7201 29.9337 48.1201 31.2265 47.8201 32.221C47.6201 33.0166 51.4201 32.5193 51.7201 31.5248C52.2201 29.7348 51.5201 27.5469 51.3201 25.7569C51.1201 24.0663 51.3201 22.2762 51.4201 20.5856C53.4201 20.4861 55.5201 20.2873 57.5201 20.5856C57.6201 21.9779 57.7201 23.3701 57.8201 24.663C57.9201 25.8563 58.0201 26.9502 58.0201 28.1436C58.0201 29.1381 58.1201 30.6298 57.8201 31.6243C57.0201 33.7127 60.9201 33.5138 61.5201 32.0221C62.2201 30.1326 62.0201 27.8453 61.9201 25.8563C61.7201 23.3701 61.3201 20.9834 61.3201 18.5966Z"/>
<path d="M78.22 22.9729C77.32 20.1884 75.82 17.8016 74.62 15.216C75.62 13.3265 76.62 11.3375 77.52 9.34855C78.32 7.55849 78.92 5.56954 80.62 4.27672C81.22 3.87892 81.22 3.38169 80.32 3.28224C79.42 3.18279 78.22 3.48113 77.52 3.97837C76.12 5.27119 75.12 6.66346 74.42 8.35407C73.52 10.4425 72.52 12.4314 71.52 14.4204C71.42 14.5198 71.42 14.7187 71.32 14.8182C70.82 15.1165 70.52 15.6138 70.72 16.111C69.92 17.7022 69.12 19.1939 68.22 20.6856C67.92 15.216 67.22 9.64689 67.02 4.17727C67.02 2.88445 63.02 3.68003 63.12 5.17174C63.32 12.0336 64.32 18.7961 64.42 25.658C64.42 25.658 64.42 25.658 64.42 25.7574C64.12 26.0558 64.22 26.2547 64.52 26.3541C64.52 28.1442 64.42 29.8348 64.32 31.6248C63.82 32.321 64.82 32.7188 65.42 32.7188H65.52C66.22 32.7188 68.12 32.4204 68.22 31.3265C68.42 29.2381 68.52 27.1497 68.42 25.0613C70.02 23.3707 71.32 21.4812 72.52 19.4922C73.32 20.9839 74.02 22.4756 74.52 24.0668C75.42 26.7519 76.82 29.3375 77.62 32.0226C78.12 33.8127 82.12 32.7188 81.52 31.0282C80.52 28.2436 79.12 25.7574 78.22 22.9729Z"/>
<path d="M101.721 18.3983C101.521 17.6027 100.321 17.6027 99.4207 17.6027C99.4207 17.3043 99.4207 16.9066 99.4207 16.6082C99.3207 13.9231 99.2207 11.238 99.0207 8.6524C98.8207 6.1662 97.4207 5.37062 95.0207 5.47007C92.6207 5.56952 89.8207 5.96731 87.5207 6.86234C84.9207 7.85682 83.4207 9.74632 82.9207 12.5309C82.4207 15.5143 83.1207 18.6966 83.3207 21.68C83.5207 25.1607 83.4207 28.6414 83.4207 32.1221C83.4207 32.7187 87.3207 32.1221 87.3207 31.1276C87.3207 28.343 87.3207 25.5585 87.3207 22.8734C87.3207 22.0778 87.2207 21.2823 87.2207 20.4867C88.6207 19.89 90.9207 20.4867 92.3207 20.5861C93.4207 20.6856 94.5207 20.3872 95.5207 20.2878C95.5207 22.5751 95.6207 24.8624 95.7207 27.1497C95.7207 28.343 96.2207 30.6303 95.3207 31.6248C94.9207 32.1221 96.8207 31.9232 96.9207 31.9232C97.7207 31.8237 98.7207 31.5254 99.2207 30.9287C100.121 29.8348 99.7207 27.1497 99.6207 25.8569C99.5207 23.9673 99.5207 22.0778 99.5207 20.1883C100.621 19.9894 101.921 19.2933 101.721 18.3983ZM87.1207 18.2988C87.0207 17.1055 86.9207 15.8126 86.8207 14.6193C86.6207 12.332 86.9207 9.05019 89.1207 7.65792C89.7207 7.26013 90.8207 7.35958 91.5207 7.26013C92.5207 7.06123 93.5207 6.86234 94.3207 7.45902C95.5207 8.25461 95.2207 11.1386 95.2207 12.332C95.2207 14.3209 95.4207 16.3099 95.5207 18.2988C94.9207 18.3983 94.4207 18.3983 93.8207 18.3983C91.5207 18.1994 89.2207 17.8016 87.1207 18.2988Z"/>
<path d="M24.2204 6.663C24.7204 6.56355 25.2204 6.4641 25.7204 6.16576C25.8204 6.06631 25.9204 5.96686 25.9204 5.96686C26.4204 5.66852 26.9204 5.17128 26.6204 4.5746C26.1204 3.48067 26.2204 2.38675 26.2204 1.19337C26.2204 0.198895 25.2204 0 24.4204 0C23.7204 0.0994477 22.2204 0.596686 22.2204 1.49172C22.2204 2.48619 22.1204 3.48067 22.3204 4.47515C22.3204 4.5746 22.2204 4.67404 22.2204 4.87294C22.1204 5.07183 22.2204 5.27073 22.3204 5.46962V5.56907C22.3204 5.66852 22.3204 5.76797 22.3204 5.86742C22.4204 6.06631 22.5204 6.26521 22.7204 6.36465C23.3204 6.663 23.8204 6.663 24.2204 6.663Z"/>
</g></symbol><symbol id="mail-icon" viewBox="0 0 32 21"><g fill="none">
<path opacity="0.2" d="M28 0H4C1.8 0 0 1.8 0 4V17C0 19.2 1.8 21 4 21H28C30.2 21 32 19.2 32 17V4C32 1.8 30.2 0 28 0ZM2 5.3L9 10.6L2 15.9V5.3ZM30 17C30 18.1 29.1 19 28 19H4C2.9 19 2 18.1 2 17L9.8 11.1L14.2 14.4C14.7 14.8 15.4 15 16 15C16.6 15 17.3 14.8 17.8 14.4L22.2 11.1L30 17ZM30 15.8L23 10.5L30 5.2V15.8ZM17.2 13.6C16.8 13.9 16.4 14 16 14C15.6 14 15.1 13.9 14.8 13.6L10.7 10.5L9.9 9.9L2 4C2 2.9 2.9 2 4 2H28C29.1 2 30 2.9 30 4L17.2 13.6Z" fill="black"/>
</g></symbol><symbol id="map-pin" viewBox="0 0 67 101"><g fill="none">
<path d="M57.1525 10.1264C44.0571 -2.07599 22.9419 -2.07599 9.84649 10.1264C-3.24896 22.3288 -3.24896 42.0708 9.84649 54.2732C9.84649 54.2732 33.4995 75.9002 33.4995 100.9C33.4995 75.9002 57.1525 54.2732 57.1525 54.2732C70.248 42.17 70.248 22.3288 57.1525 10.1264Z" fill="white"/>
<path d="M47.712 46.1386C47.1029 42.8648 47.8135 39.2934 47.712 35.9204C47.6105 32.1505 47.0014 28.4799 47.0014 24.8093C47.0014 21.8331 47.509 18.6585 46.4938 15.7815C46.5953 15.4839 46.5953 15.087 46.6969 14.7894C47.0014 13.3013 42.0272 14.095 41.3166 15.3847C40.809 15.7815 40.606 16.2775 40.809 16.6743C40.9105 16.7736 40.9105 16.8728 40.9105 17.0712C39.9969 21.5355 38.6772 25.8013 37.1544 30.1664C36.5453 31.8529 35.9363 33.4402 35.3272 35.0275C34.515 33.5394 33.7029 31.9521 32.9923 30.3648C31.0635 25.6029 29.2363 20.7418 26.9014 16.1783C27.206 14.095 22.3332 14.2934 21.4196 16.1783C20.3029 18.5593 20.4044 20.9402 20.8105 23.4204C21.2166 26.2974 21.3181 29.0751 21.3181 31.9521C21.4196 37.5077 21.8257 42.964 21.9272 48.5196C21.4196 49.1148 21.3181 49.7101 21.8257 50.4045C22.0287 50.7021 22.3332 50.9005 22.6378 51.1982C23.9575 52.1902 27.612 51.3966 27.612 49.4124C27.612 43.6585 27.206 38.0037 27.0029 32.2497C27.0029 31.6545 27.0029 31.1585 27.0029 30.5632C27.1044 30.7616 27.206 30.9601 27.206 31.1585C28.1196 33.341 29.0332 35.5236 30.3529 37.6069C31.5711 39.6902 32.1802 41.8728 32.8908 44.0553C32.5863 44.3529 32.4847 44.6505 32.5863 45.0474C32.4847 45.345 32.6878 45.4442 32.9923 45.5434C33.906 46.337 35.6317 45.9402 36.5453 45.5434C36.9514 45.345 37.3575 45.1466 37.7635 44.9482C38.2711 44.6505 38.9817 43.9561 38.7787 43.3609C38.7787 43.2617 38.6772 43.0632 38.6772 42.964C39.3878 41.1783 39.6923 39.3926 40.0984 37.5077C40.5044 35.5236 41.215 33.6386 41.9256 31.7537C42.0272 32.6466 42.0272 33.4402 42.1287 34.3331C42.4332 37.9045 42.1287 41.3767 42.1287 44.9482C42.1287 46.1386 42.2302 47.2299 42.4332 48.3212C42.5347 48.8172 42.9408 50.8013 42.8393 50.9005C41.9256 51.6942 42.2302 52.6863 43.3469 52.8847C44.6666 53.1823 46.2908 52.7855 47.3059 51.8926C48.9302 50.5037 48.1181 48.1228 47.712 46.1386Z" fill="#6BC6B3"/>
</g></symbol><symbol id="menu-close" viewBox="0 0 21 20"><g fill="none">
<path d="M21 1.36585L19.5659 0L10.5512 8.58537L1.43415 0L0 1.36585L9.01463 10.0488L0 18.6341L1.43415 20L10.5512 11.4146L19.5659 20L21 18.6341L11.9854 10.0488L21 1.36585Z" fill="black"/>
</g></symbol><symbol id="menu-open" viewBox="0 0 20 14"><g fill="none">
<path d="M20 0H0V2H20V0Z" fill="#231F20"/>
<path d="M20 6H0V8H20V6Z" fill="#231F20"/>
<path d="M20 12H0V14H20V12Z" fill="#231F20"/>
</g></symbol><symbol id="phone-icon" viewBox="0 0 25 24"><g fill="none">
<g opacity="0.2">
<path d="M17.4395 24C17.0363 24 16.7339 24 16.3306 24C11.3911 23.4074 7.7621 21.1358 5.14113 18.2717C2.52016 15.4075 0.403226 11.7532 0 6.7162C0 6.22237 0 5.82731 0 5.33349C0.100806 4.44461 0.504032 3.85202 1.10887 3.25943C1.71371 2.56808 2.72177 1.77796 3.62903 1.6792C4.33468 1.6792 5.44355 2.17302 5.84677 2.76561C6.25 3.25943 6.45161 4.34584 6.65323 5.13596C6.85484 6.02484 7.25806 7.11125 7.15726 7.90137C6.95565 9.08655 5.34274 9.58037 4.93952 10.4693C6.55242 14.1235 9.07258 16.889 12.5 18.6667C13.3065 18.1729 14.1129 16.7902 15.3226 16.7902C15.7258 16.7902 16.3306 16.9877 16.7339 17.0865C17.2379 17.1852 17.6411 17.3828 18.0444 17.5803C18.75 17.8766 20.0605 18.1729 20.4637 18.7655C20.8669 19.3581 21.1694 20.3457 21.0685 20.9383C20.7661 22.2222 18.6492 23.6049 17.4395 24Z" fill="black"/>
<path d="M12.6008 1.48147C18.5484 1.48147 23.4879 6.22217 23.4879 12.1481H25C25 5.43205 19.4556 0 12.6008 0V1.48147Z" fill="black"/>
<path d="M12.6008 9.18506V10.7653C13.4073 10.7653 14.0121 11.3579 14.0121 12.148H15.625C15.625 10.5678 14.3145 9.18506 12.6008 9.18506Z" fill="black"/>
<path d="M12.6008 6.12356C15.9274 6.12356 18.75 8.79021 18.75 12.1482H20.3629C20.3629 8.00009 16.9355 4.64209 12.7016 4.64209V6.12356H12.6008Z" fill="black"/>
</g>
</g></symbol><symbol id="play" viewBox="0 0 101 77"><g fill="none">
<path d="M97.2852 18.1472C97.2852 18.1472 96.3817 11.1289 93.4701 8.02085C89.8558 4.01044 85.7395 3.91016 83.9324 3.70964C70.5795 2.70703 50.5 2.70703 50.5 2.70703H50.3996C50.3996 2.70703 30.32 2.70703 16.9671 3.70964C15.0596 3.91016 11.0437 4.01044 7.42938 8.02085C4.61824 11.1289 3.61427 18.1472 3.61427 18.1472C3.61427 18.1472 2.71069 26.3685 2.71069 34.5899V42.3099C2.71069 50.5313 3.61427 58.7526 3.61427 58.7526C3.61427 58.7526 4.51785 65.7708 7.42938 68.8789C11.0437 72.8893 15.8628 72.7891 17.9711 73.1901C25.6013 73.9922 50.5 74.1927 50.5 74.1927C50.5 74.1927 70.5795 74.1927 83.9324 73.1901C85.8399 72.9896 89.8558 72.8893 93.4701 68.8789C96.2813 65.7708 97.2852 58.7526 97.2852 58.7526C97.2852 58.7526 98.1888 50.5313 98.1888 42.3099V34.5899C98.1888 26.3685 97.2852 18.1472 97.2852 18.1472Z" fill="#63D1BB"/>
<path d="M50.3996 77C49.3956 77 25.3002 76.6992 17.67 75.9974H17.5696H17.4692C17.168 75.8971 16.7664 75.8972 16.3648 75.7969C13.8549 75.4961 9.13618 74.8946 5.52187 70.7839C2.10835 67.1745 1.10437 59.9557 1.00398 59.1537C1.00398 58.8529 0 50.6315 0 42.4102V34.6901C0 26.3685 0.903588 18.2474 0.903588 17.9466V17.8463C1.00399 17.0443 2.10836 9.92577 5.42148 6.21613C9.43738 1.80467 13.9553 1.30339 16.164 1.10287C16.3648 1.10287 16.5656 1.10286 16.666 1.0026H16.7664C30.1193 0 50.1988 0 50.3996 0H50.5C50.7008 0 70.7803 0 84.1332 1.0026H84.2336C84.4344 1.0026 84.5348 1.00261 84.7356 1.10287C86.9443 1.30339 91.4622 1.80467 95.4781 6.21613C98.8917 9.8255 99.8956 17.0443 99.996 17.8463C99.996 18.1471 101 26.3685 101 34.6901V42.4102C101 50.7318 100.096 58.8529 99.996 59.1537V59.2539C99.8956 60.056 98.7913 67.2747 95.4781 70.8841C91.4622 75.2956 86.9443 75.7969 84.7356 75.9974C84.5348 75.9974 84.334 75.9974 84.2336 76.0977H84.1332C70.7803 77 50.6004 77 50.3996 77ZM18.3728 70.5833C25.9026 71.2852 49.6968 71.5859 50.5 71.5859C51.2028 71.5859 70.6799 71.5859 83.6312 70.5833C83.832 70.5833 84.0328 70.5833 84.2336 70.4831C86.0407 70.2826 88.8519 69.9818 91.4622 67.1745C93.2694 65.1693 94.3738 60.2565 94.5746 58.5521C94.675 58.0508 95.4781 50.1302 95.4781 42.4102V34.6901C95.4781 26.8698 94.5746 19.0495 94.4742 18.5482C94.173 16.1419 93.0686 11.7305 91.3618 10.026C88.7515 7.11849 85.9404 6.91795 84.1332 6.71743C83.9324 6.71743 83.7316 6.71746 83.5308 6.6172C70.3787 5.61459 50.6004 5.61459 50.3996 5.61459H50.2992C50.0984 5.61459 30.2197 5.61459 17.168 6.6172C16.9672 6.6172 16.7664 6.61717 16.5656 6.71743C14.7584 6.91795 11.9473 7.21875 9.337 10.026C7.52984 12.0313 6.42546 16.944 6.22466 18.6484C6.12427 19.25 5.32108 27.0703 5.32108 34.7904V42.5104C5.32108 50.2305 6.22466 58.1511 6.22466 58.6524C6.52586 61.0586 7.63024 65.4701 9.337 67.1745C11.6461 69.7813 14.6581 70.1823 16.8668 70.4831C17.4692 70.3828 17.8708 70.4831 18.3728 70.5833Z" fill="white"/>
<path d="M38.4521 20.5532V56.3462L68.3706 38.4998L38.4521 20.5532Z" fill="white"/>
</g></symbol><symbol id="search" viewBox="0 0 18 18"><g fill="none">
<path opacity="0.2" d="M17.6932 16.0568L14.2159 12.5795C15.2386 11.25 15.75 9.61364 15.75 7.875C15.75 3.47727 12.2727 0 7.875 0C3.47727 0 0 3.47727 0 7.875C0 12.2727 3.47727 15.75 7.875 15.75C9.61364 15.75 11.25 15.1364 12.5795 14.2159L16.0568 17.6932C16.2614 17.8977 16.4659 18 16.875 18C17.4886 18 18 17.4886 18 16.875C18 16.6705 17.8977 16.3636 17.6932 16.0568ZM2.25 7.875C2.25 4.80682 4.80682 2.25 7.875 2.25C10.9432 2.25 13.5 4.80682 13.5 7.875C13.5 10.9432 10.9432 13.5 7.875 13.5C4.80682 13.5 2.25 10.9432 2.25 7.875Z" fill="black"/>
</g></symbol><symbol id="toy" viewBox="0 0 60 61"><g fill="none">
<path opacity="0.5" d="M0 44.7265L27.4 61V37.1527L0 20.7768V44.7265ZM51.3 12.6913V15.25C51.3 17.0923 47.8 18.6275 43.6 18.6275C39.3 18.6275 35.9 17.0923 35.9 15.25V11.0537C36.2 12.7936 39.5 14.2265 43.6 14.2265C47.9 14.2265 51.3 12.6913 51.3 10.849C51.3 9.00672 47.8 7.47148 43.6 7.47148C43.3 7.47148 42.9 7.47148 42.6 7.47148L37.6 4.50337V7.67617C37.6 9.51846 34.1 11.0537 29.9 11.0537C27.2 11.0537 24.9 10.4396 23.5 9.51846C23.3 9.31376 23.1 9.10906 22.8 8.90436C22.4 8.49496 22.2 8.08557 22.2 7.67617V4.6057L17.4 7.47148C17.1 7.47148 16.7 7.47148 16.3 7.47148C12 7.47148 8.60001 9.00672 8.60001 10.849C8.60001 12.6913 12.1 14.2265 16.3 14.2265C20.4 14.2265 23.7 12.7936 24 11.0537V15.25C24 17.0923 20.5 18.6275 16.3 18.6275C12 18.6275 8.60001 17.0923 8.60001 15.25V12.7936L2.60001 16.3758L30.1 32.7517L57.5 16.4782L51.3 12.6913ZM37.7 23.1309C37.7 24.9732 34.2 26.5084 30 26.5084C25.7 26.5084 22.3 24.9732 22.3 23.1309V18.9346C22.6 20.6745 25.9 22.1074 30 22.1074C34.1 22.1074 37.4 20.6745 37.7 18.9346V23.1309ZM32.6 37.3574V61L60 44.7265V21.0839L32.6 37.3574ZM29.9 6.75504C34.2 6.75504 37.6 5.2198 37.6 3.37752C37.6 1.53524 34.1 0 29.9 0C25.6 0 22.2 1.53524 22.2 3.37752C22.2 5.2198 25.6 6.75504 29.9 6.75504Z" fill="#149080"/>
</g></symbol><symbol id="twitter" viewBox="0 0 23 20"><g fill="currentColor">
<path d="M22.9571 4.24243C22.7628 3.83838 22.0826 3.93939 21.5968 3.83838H20.5279C20.6251 3.43434 20.8194 3.23232 21.0138 2.82828C21.1109 2.42424 21.3053 2.12121 21.2081 1.51515C21.3053 1.31313 21.4024 1.11111 21.4996 0.909089C21.5968 0.808079 21.694 0.404041 21.5968 0.202021C21.4996 7.67636e-07 21.3053 0 21.0138 0C20.9166 0 20.8194 0.101009 20.8194 0.101009C20.4308 0.505049 20.0421 1.11111 19.5562 1.51515H19.4591C19.3619 1.51515 19.4591 1.51515 19.3619 1.61616C19.2647 1.71717 19.0704 1.81818 18.9732 1.81818C18.6817 2.0202 18.4874 2.22222 18.0987 2.32323C17.6129 2.12121 16.9327 2.0202 16.2525 1.91919C15.0865 2.0202 14.0176 2.12121 13.3374 2.62626C12.4629 2.92929 11.8799 3.63636 11.2969 4.24243C11.2969 4.54546 11.0054 4.64646 10.9082 4.94949C10.9082 4.94949 10.9082 5.05051 10.811 5.05051C10.811 5.25253 10.7139 5.35354 10.7139 5.55556C10.7139 5.65657 10.9082 5.9596 10.7139 6.06061C9.93651 5.9596 9.25633 5.45455 8.67331 5.05051C7.99313 4.64646 7.21578 4.44444 6.63277 3.93939C5.95259 3.63636 5.36957 3.13131 4.88372 2.62626C4.68939 2.32323 4.39788 2.12121 4.20354 1.71717C3.81487 1.51515 4.00921 0.80808 3.52336 0.80808C3.23185 0.80808 3.23185 1.0101 3.13468 1.21212C3.03751 1.41414 2.74601 1.41414 2.74601 1.71717C2.74601 1.71717 2.74601 1.81818 2.64884 1.81818C2.4545 2.92929 2.16299 3.83838 2.16299 5.15151C2.26016 5.55555 2.4545 5.85858 2.74601 6.16161C2.35733 6.26263 2.06583 6.36364 1.87149 6.66667C1.77432 7.77778 2.26016 8.28283 2.55167 8.9899C2.64884 9.39394 2.94035 9.69697 3.13468 10C3.13468 10.202 3.32902 10.303 3.42619 10.404C3.42619 10.5051 3.52336 10.505 3.52336 10.6061C3.52336 10.7071 3.81487 10.8081 3.62053 10.8081C3.23185 10.9091 2.64884 10.9091 2.35733 11.2121C2.26016 11.5152 2.26016 12.0202 2.35733 12.3232C2.35733 12.5253 2.64884 12.6263 2.64884 12.8283C3.13468 13.2323 3.7177 13.5354 4.20354 13.9394C4.78656 14.1414 5.36957 14.2424 6.04975 14.3434C5.95258 14.6465 5.75825 14.9495 5.46674 15.0505C4.68939 15.4545 3.7177 15.5556 2.84318 15.7576C2.26016 15.7576 1.87149 15.9596 1.28848 15.9596C0.996969 16.0606 0.413953 16.0606 0.219615 16.1616C0.122446 16.2626 0.122445 16.2626 0.0252764 16.3636C-0.0718926 16.7677 0.122447 17.0707 0.413954 17.2727C0.413954 17.5758 0.608293 17.5758 0.802631 17.6768C0.8998 17.8788 1.09414 17.9798 1.1913 18.0808C1.67715 18.5859 2.4545 18.8889 3.03752 19.1919C3.81487 19.3939 4.59222 19.596 5.46674 19.697C6.34126 19.798 7.31295 19.798 8.18747 19.899H9.15916C9.645 20 10.3252 20 11.0054 20C11.1025 19.899 11.2969 19.899 11.4912 19.899C11.9771 19.596 12.6572 19.4949 13.0459 19.1919C13.6289 18.9899 14.0176 18.5859 14.6006 18.2828C15.4751 17.4748 16.4468 16.9697 17.0298 15.8586C17.2242 15.6566 17.4185 15.4545 17.4185 15.1515C17.71 14.9495 17.8072 14.6465 18.0015 14.4444C18.3902 14.0404 18.6817 13.5354 18.9732 13.0303C19.2647 12.5253 19.5562 11.9192 19.8477 11.4141C19.8477 11.0101 20.1393 10.9091 20.1393 10.505C20.3336 10.303 20.3336 9.79798 20.5279 9.59596C20.5279 9.29293 20.5279 9.19192 20.6251 8.9899C20.6251 7.67677 20.6251 6.56566 20.3336 5.55556C20.9166 5.35354 21.4996 5.25252 21.8883 4.94949C22.6656 5.25252 23.1515 4.84849 22.9571 4.24243ZM19.6534 8.28283C19.4591 9.19192 19.0704 9.69697 18.6817 10.303C18.7789 10.7071 18.5845 10.8081 18.5845 11.2121C18.3902 11.5152 18.293 11.9192 18.1959 12.2222C18.0015 12.5253 17.9044 12.8283 17.71 13.1313C17.3214 13.6364 16.9327 14.2424 16.544 14.7475C16.1553 15.3535 15.6695 15.7576 15.2808 16.2626C14.8921 16.7677 14.4063 17.1717 13.9204 17.5758C13.4346 17.7778 13.0459 17.9798 12.6572 18.2828C12.4629 18.3838 12.1714 18.4848 11.9771 18.5859C11.7827 18.6869 11.4912 18.6869 11.2969 18.8889C10.228 18.9899 9.06199 19.0909 7.79879 18.9899C6.8271 18.8889 5.75824 18.7879 4.88372 18.5859C4.0092 18.3838 3.42619 17.8788 2.64884 17.5758C2.84318 17.3737 3.23185 17.3737 3.62053 17.3737C3.62053 17.1717 4.00921 17.3737 4.00921 17.2727C4.30071 17.3737 4.30071 17.1717 4.49505 17.1717C5.07806 16.9697 5.66108 16.8687 6.14692 16.5657C6.43843 16.4646 6.5356 16.1616 6.8271 15.9596C6.8271 15.7576 6.92427 15.6566 7.02144 15.5556C7.02144 15.2525 7.21578 15.1515 7.11861 14.7475C7.21578 14.5455 7.41012 14.4444 7.41012 14.0404C7.31295 13.9394 7.31295 13.7374 7.11861 13.6364C7.11861 13.4343 6.72994 13.5354 6.72994 13.4343C6.43843 13.4343 6.34126 13.4343 6.14692 13.3333C5.95259 13.3333 5.66108 13.4343 5.66108 13.2323C4.88373 13.2323 4.39788 12.8283 3.81487 12.5253C4.20354 12.2222 4.78656 12.1212 5.07806 11.8182C5.56391 11.7172 6.14692 11.7172 6.14692 11.1111C6.14692 10.404 5.36957 10.404 4.88372 10.303C4.10637 9.59596 3.7177 8.58586 3.13468 7.77778C3.32902 7.57576 3.7177 7.57576 3.81487 7.37374C4.30071 7.47475 4.30071 7.07071 4.49505 6.86869C4.49505 6.36364 4.20354 6.26263 3.91203 6.06061C3.62053 5.85859 3.42619 5.55556 3.23185 5.35354C3.23185 4.54545 3.23185 3.63636 3.32902 2.92929C3.42619 2.92929 3.42619 2.92929 3.42619 3.0303C3.62053 3.43434 4.00921 3.83838 4.20354 4.24243C4.68939 4.64647 5.07806 5.15151 5.75825 5.35354C6.24409 5.75758 6.8271 5.9596 7.31295 6.36364C7.89596 6.66667 8.47898 6.9697 8.96482 7.27273C9.645 7.47475 10.0337 7.9798 10.9082 7.87879C11.1025 7.77778 11.2969 7.67677 11.4912 7.57576C11.7827 7.07071 11.394 6.46464 11.5884 5.95959C11.8799 5.25252 12.3657 4.94949 12.8516 4.44444C13.1431 4.24242 13.4346 4.14141 13.6289 3.93939C13.9204 3.83838 14.3091 3.73737 14.6006 3.53535C14.9893 3.53535 15.2808 3.43434 15.5723 3.43434H16.8355C17.0298 3.53535 17.3214 3.53535 17.5157 3.53535C17.71 3.63636 17.9044 3.83838 18.1959 3.93939C18.9732 4.64646 19.4591 5.65656 19.5562 6.9697C19.5562 7.27273 19.6534 7.67677 19.6534 8.28283ZM19.9449 2.62626C19.8477 2.92929 19.7506 3.33333 19.3619 3.43434C19.3619 3.33333 19.2647 3.33333 19.2647 3.23232C19.2647 3.0303 19.4591 3.0303 19.5562 2.92929C19.6534 2.82828 19.7506 2.62626 19.9449 2.62626C20.0421 2.62626 19.9449 2.52525 19.9449 2.62626ZM14.6006 5.65656C14.795 5.75757 14.8921 5.9596 15.0865 6.06061C15.1836 6.26263 15.378 6.36363 15.6695 6.46464C15.6695 6.26262 15.961 6.46465 16.0582 6.26263C16.2525 6.26263 16.2525 6.0606 16.3497 5.95959C16.3497 5.45454 16.2525 4.94949 15.961 4.64646C15.2808 4.14141 14.3091 4.64646 14.6006 5.65656Z"/>
</g></symbol><symbol id="video" viewBox="0 0 32 22"><g fill="none">
<path d="M26 10L32 6V22L26 18V10ZM24 10V18C24 20.2 22.2 22 20 22H4C1.8 22 0 20.2 0 18V10C0 7.8 1.8 6 4 6H14C14 4.9 14.9 4 16 4V2H5C4.4 2 4 1.6 4 1C4 0.4 4.4 0 5 0H17C17.6 0 18 0.4 18 1V4C19.1 4 20 4.9 20 6C22.2 6 24 7.8 24 10ZM12 10H4V18H12V10ZM20 11C20 10.4 19.6 10 19 10H15C14.4 10 14 10.4 14 11C14 11.6 14.4 12 15 12H19C19.6 12 20 11.6 20 11Z" fill="#63D1BB"/>
</g></symbol></svg>