<svg width="22.000000" height="21.000000" viewBox="0 0 22 21" fill="currentColor" xmlns="http://www.w3.org/2000/svg" xmlns:xlink="http://www.w3.org/1999/xlink">
	<path id="insta.svg" d="M22 11.58C22 9.2 21.69 6.83 21.69 4.55C21.69 3.75 21.59 3.06 21.49 2.27C21.39 1.97 21.39 1.58 21.29 1.18C20.99 0.98 21.09 0.58 20.79 0.39C20.38 0.19 19.58 0.29 19.08 0.19C18.37 0.19 17.77 0.09 17.16 -0.01C15.25 -0.11 13.14 -0.11 11.12 -0.11C9.11 -0.11 7.1 -0.21 5.39 -0.5L3.17 -0.5C3.07 -0.5 3.07 -0.41 2.97 -0.41C2.37 -0.41 1.86 -0.21 1.36 -0.11C1.16 -0.01 0.96 0.09 0.66 0.19C0.56 0.39 0.15 0.29 0.05 0.58C-0.15 0.78 0.25 1.08 0.05 1.18L0.05 2.07C0.25 2.17 0.05 2.66 0.15 2.86L0.15 3.85C0.15 5.14 0.25 6.23 0.25 7.52C0.76 10.29 0.66 13.96 0.36 16.83C0.56 17.42 0.76 17.92 0.86 18.51C1.16 19.01 1.16 19.6 1.56 20C2.07 20.2 2.77 20.2 3.48 20.2C3.88 20.3 4.18 20.5 4.58 20.5C7.4 20.3 10.12 20.3 13.04 20.3C15.75 20.5 18.87 20.5 21.39 20.1C21.59 20 21.49 19.6 21.59 19.31C21.49 18.91 21.79 18.91 21.79 18.51C22 16.43 22 14.06 22 11.58ZM8.91 5.44C9.72 5.24 10.42 5.14 11.33 5.14C12.03 5.24 12.63 5.44 13.24 5.64C13.34 5.83 13.04 6.13 13.44 6.33C13.54 6.33 13.54 6.33 13.64 6.43C14.04 6.43 14.45 6.63 14.75 6.83C15.25 6.92 15.25 7.32 15.86 7.22C15.75 7.42 15.75 7.72 15.75 8.01C16.06 9.2 16.26 10.79 16.06 12.27C15.86 12.47 15.86 12.67 15.75 12.97C15.45 13.26 15.25 13.76 14.95 14.06C14.85 14.25 14.65 14.45 14.45 14.55C14.35 14.75 14.24 15.05 13.94 15.05C13.64 15.25 13.34 15.05 13.14 14.95C12.74 15.15 12.23 15.25 11.93 15.54C11.12 15.44 10.32 15.34 9.51 15.25C9.31 15.15 9.01 14.95 8.71 14.95C8.51 14.75 8.21 14.55 7.9 14.45C7.8 14.35 7.6 14.35 7.4 14.25C7.2 14.25 7.2 14.06 6.9 14.06C6.8 13.66 6.49 13.46 6.39 12.97C6.19 12.67 6.09 12.17 5.89 11.78C5.89 10.39 5.99 9.1 6.29 8.01C6.6 7.42 7.1 6.92 7.4 6.33C7.6 6.33 7.8 6.23 7.8 6.03C8.11 6.13 8.21 5.93 8.51 5.93C8.71 5.93 8.71 5.64 8.91 5.44ZM7.2 2.76C7.1 2.47 7.1 2.07 7.1 1.67C7.1 1.38 7.4 1.38 7.4 1.18C7.4 1.08 7.3 1.08 7.2 1.08C7.3 0.98 7.9 0.98 8 1.08C8.11 1.58 7.6 1.58 7.5 1.77C7.5 1.97 7.8 1.77 8 1.87C8 2.76 7.9 3.36 8 4.05L7.5 4.05C7.5 4.25 7.7 4.25 8 4.25C7.9 4.55 8.11 4.65 8.11 4.84C7.9 5.04 7.4 4.84 7 4.94C7 4.35 7.3 3.56 7.2 2.76ZM6.49 1.18C6.6 1.18 6.6 1.18 6.7 1.28C6.9 1.58 6.7 1.97 6.6 2.17C6.39 1.97 6.6 1.48 6.49 1.18ZM6.7 2.96C6.6 2.86 6.49 2.76 6.49 2.47C6.7 2.57 6.7 2.76 6.7 2.96ZM6.7 4.35C6.6 4.45 6.6 4.35 6.6 4.15C6.7 4.05 6.7 4.25 6.7 4.35ZM6.49 4.55C6.7 4.55 6.6 4.75 6.7 4.75C6.7 4.94 6.39 4.94 6.29 4.84C6.39 4.75 6.49 4.65 6.49 4.55ZM4.18 3.36C4.18 3.26 4.18 3.16 4.08 3.16C3.98 2.47 4.18 1.77 4.08 1.18C4.38 0.98 4.88 1.18 5.19 1.08L5.19 2.17C5.09 2.27 4.99 2.27 4.78 2.27C4.68 2.57 5.09 2.37 5.19 2.57C5.19 3.46 5.09 4.35 5.39 4.94C4.78 4.84 4.48 5.04 3.98 5.04C4.08 4.45 3.98 3.66 4.48 3.46C4.48 3.36 4.18 3.46 4.18 3.36ZM3.68 3.36C3.48 3.36 3.48 2.86 3.58 2.76C3.88 2.76 3.78 3.26 3.68 3.36ZM3.48 4.35C3.58 4.05 3.48 4.05 3.58 3.66C3.78 3.66 3.78 4.45 3.48 4.35ZM3.68 2.27C3.37 2.37 3.37 1.97 3.48 1.87C3.78 1.87 3.88 2.17 3.68 2.27ZM3.68 1.18C3.68 1.38 3.58 1.38 3.58 1.48C3.37 1.48 3.48 1.28 3.37 1.28C3.48 1.18 3.58 1.18 3.68 1.18ZM3.48 4.84C3.58 4.84 3.58 5.14 3.37 5.04C3.48 5.04 3.48 4.94 3.48 4.84ZM2.77 1.18C2.77 1.48 2.37 1.48 2.37 1.18L2.77 1.18ZM1.76 1.28C1.76 1.48 1.46 1.48 1.36 1.67C1.16 1.48 1.46 1.18 1.76 1.28ZM1.36 1.97C1.56 1.77 1.86 1.58 2.07 1.38C2.07 1.28 2.17 1.28 2.17 1.18L2.37 1.18C2.47 1.58 2.07 1.48 2.07 1.67C2.07 1.77 1.97 1.77 1.97 1.87C1.97 2.17 2.07 2.47 2.07 2.86C1.76 2.86 1.76 3.16 1.46 3.06C1.46 2.66 1.26 2.47 1.36 1.97ZM1.46 5.24L1.46 3.66C1.66 3.46 1.86 3.26 2.07 3.16C2.37 3.66 2.27 4.55 2.57 5.04C2.17 5.14 1.76 5.14 1.46 5.24ZM19.78 16.24C19.68 17.23 19.58 18.22 19.38 19.01C16.46 19.11 13.34 19.01 10.42 19.21C10.22 19.21 10.12 19.21 10.22 19.01C9.92 19.01 9.92 19.21 9.72 19.21C9.92 18.91 10.12 18.32 9.92 17.92C9.11 17.92 9.11 18.71 8.81 19.21C8.11 19.11 7.7 19.31 7 19.31C7.2 18.61 7.7 18.32 7.9 17.62C7.5 17.13 6.9 17.72 6.7 18.12C6.49 18.61 6.09 18.91 5.89 19.41L4.88 19.41C5.09 18.91 5.39 18.51 5.69 18.02C5.89 17.52 6.29 17.33 6.39 16.63C6.19 16.33 5.99 16.63 5.69 16.63C5.59 16.83 5.39 16.93 5.29 17.13C5.09 17.52 4.78 17.82 4.58 18.22C4.38 18.41 4.28 18.22 4.08 18.41C3.68 18.71 3.48 19.11 3.07 19.41C2.87 19.31 3.07 19.01 3.27 19.01C3.27 18.81 3.17 18.51 3.37 18.41C3.48 18.02 3.58 17.82 3.78 17.52C3.88 16.83 4.28 16.33 4.48 15.64C3.88 15.74 3.78 16.24 3.48 16.63C3.27 17.03 2.97 17.42 2.77 17.92C2.57 17.82 2.77 17.33 2.67 17.13C2.77 16.53 2.97 16.04 3.07 15.44C3.17 15.25 3.27 14.95 3.27 14.65C3.48 14.45 3.27 14.06 3.17 13.86C2.97 13.86 2.77 13.96 2.67 14.16C2.47 14.16 2.47 14.65 2.37 14.45C2.37 11.88 1.86 9.7 1.86 7.12C1.86 6.83 1.66 6.73 1.66 6.43C3.27 6.43 4.78 6.53 6.49 6.63C6.39 6.73 6.29 6.92 6.19 7.02C6.09 7.12 5.99 7.22 5.79 7.32C5.19 9 4.78 11.28 5.19 13.46C5.39 14.06 5.79 14.45 6.19 14.85C7.1 15.34 7.8 15.94 8.71 16.53C10.42 16.93 12.53 16.93 14.24 16.53C14.45 16.43 14.75 16.33 14.95 16.14C16.36 14.95 17.77 13.66 17.97 11.28L17.97 9.9C17.77 8.31 17.26 7.02 16.26 6.33C16.56 6.13 17.37 6.33 17.97 6.43C18.17 6.43 18.37 6.43 18.67 6.43C19.08 6.43 19.58 6.33 20.08 6.43C20.18 6.63 20.18 6.92 20.28 7.22C20.18 8.91 20.08 10.49 20.08 12.27C20.18 12.77 20.18 13.26 20.28 13.66C20.08 14.45 19.98 15.34 19.78 16.24ZM20.18 5.14C19.58 5.04 18.98 4.84 18.27 4.75C18.37 4.45 19.08 4.75 19.28 4.55C19.68 4.35 19.58 3.66 19.58 3.06C19.58 2.76 19.68 2.47 19.68 1.97C19.28 0.98 17.87 1.58 16.76 1.48C16.56 2.17 16.26 3.26 16.46 4.15C16.66 4.65 17.47 4.45 17.97 4.65C17.87 4.94 17.26 4.75 16.96 4.75C16.66 4.65 16.26 4.65 15.96 4.55C13.64 4.65 11.63 4.55 9.41 4.75C9.51 3.56 9.51 2.27 9.31 1.18L12.43 1.18C12.13 1.58 11.53 1.67 11.12 1.97C10.72 2.17 10.22 2.47 10.02 2.86C10.22 2.96 10.52 2.66 10.82 2.47C11.23 2.37 11.33 2.07 11.63 1.97C12.03 1.58 12.74 1.38 13.34 1.08C13.74 1.08 14.04 1.08 14.35 1.18C15.65 1.18 16.86 1.28 18.17 1.28C18.77 1.38 19.68 1.38 20.18 1.58C20.28 1.87 20.38 2.17 20.49 2.47C20.38 3.46 20.18 4.25 20.18 5.14ZM14.24 1.48C13.74 1.67 13.24 1.77 12.84 2.17C13.34 1.97 13.94 1.87 14.24 1.48ZM13.54 2.96C14.24 2.76 14.75 2.37 15.25 2.07C14.85 2.07 14.65 2.37 14.24 2.47C14.14 2.66 13.74 2.66 13.54 2.96ZM11.23 3.46C11.53 3.36 11.83 3.16 12.03 2.86C11.73 3.06 11.43 3.26 11.23 3.46ZM13.54 4.45C14.04 4.45 14.24 4.05 14.75 3.95C15.05 3.66 15.55 3.56 15.75 3.16C15.15 3.16 14.95 3.56 14.55 3.66C14.24 4.05 13.74 4.15 13.54 4.45ZM12.33 6.23C12.13 6.03 11.63 6.03 11.33 5.83C10.62 5.83 10.12 5.93 9.61 6.03C9.31 6.23 9.01 6.33 8.71 6.53C8.41 6.73 8.31 6.92 7.9 7.02C7.7 7.22 7.5 7.52 7.2 7.62C7.2 7.82 7 7.91 6.9 8.01C6.8 8.11 6.8 8.31 6.7 8.41C6.7 8.51 6.7 8.71 6.6 8.71C6.7 10.19 6.9 11.58 7.3 12.87C7.6 13.46 8.31 13.66 8.71 14.16C9.31 14.45 10.02 14.55 10.82 14.65C11.12 14.55 11.43 14.55 11.73 14.55C12.94 14.35 13.84 13.86 14.55 13.16C14.65 12.87 14.85 12.67 15.05 12.47C14.75 11.78 15.35 11.38 15.55 10.89C15.55 9.6 15.35 8.41 14.95 7.52C14.65 6.92 14.04 6.73 13.54 6.43C13.44 6.43 13.34 6.43 13.34 6.33C13.14 6.23 12.63 6.13 12.33 6.23ZM8.91 10.59C8.81 10.49 8.81 10.39 8.71 10.19C9.01 10.09 8.91 10.39 8.91 10.59ZM11.12 6.73C10.92 7.02 11.12 7.32 11.23 7.52C10.92 7.52 10.62 6.73 11.12 6.73ZM12.23 13.46C12.23 13.36 12.33 13.46 12.43 13.46C12.43 13.56 12.23 13.56 12.23 13.46ZM14.45 10.99C14.24 10.89 14.35 11.18 14.04 11.18C14.14 10.99 14.14 10.89 14.24 10.69C14.45 10.69 14.55 10.79 14.45 10.99ZM13.34 7.22C13.54 7.32 13.74 7.42 13.94 7.62C14.04 7.82 14.14 8.01 14.35 8.11C14.45 8.91 14.55 9.6 14.55 10.49C14.24 10.59 14.14 10.79 13.84 10.89C13.04 10.89 12.43 10.69 11.93 10.39C11.73 10.09 11.53 9.9 11.43 9.6L11.43 8.51C11.63 8.31 11.73 8.11 11.93 7.91C12.13 7.82 12.43 7.72 12.43 7.32C12.43 7.22 12.33 7.22 12.33 7.12C12.53 7.12 12.53 7.32 12.74 7.32C12.94 7.32 13.04 7.12 13.34 7.22Z" fill-opacity="1.000000"/>
</svg>
